<?xml version="1.0" encoding="UTF-8"?>
<svg width="73px" height="103px" viewBox="0 0 73 103" version="1.1" xmlns="http://www.w3.org/2000/svg" xmlns:xlink="http://www.w3.org/1999/xlink">
    <!-- Generator: Sketch 48.2 (47327) - http://www.bohemiancoding.com/sketch -->
    <title>Kareo_Logo_4C_CMYK</title>
    <desc>Created with Sketch.</desc>
    <defs></defs>
    <g id="Page-1" stroke="none" stroke-width="1" fill="none" fill-rule="evenodd">
        <g id="Kareo_Logo_4C_CMYK" transform="translate(-1.000000, -2.000000)" fill="#FA1D8C">
            <path d="M30.0986957,37.2188485 C33.7214783,38.9469697 38.685913,36.1170909 41.1922609,30.8909697 C43.6953913,25.6648485 42.7913043,20.0307879 39.1717391,18.2994545 C35.5489565,16.5681212 30.5845217,19.4012121 28.0781739,24.6241212 C25.5750435,29.8502424 26.475913,35.484303 30.0986957,37.2188485" id="Fill-2"></path>
            <path d="M55.0881739,56.9894545 C55.0881739,69.8604242 71.1204348,91.3687879 72.8835652,94.7736364 C73.4144348,95.7918788 73.9002609,97.2694545 73.9131304,98.3872727 C73.9678261,102.354242 70.9981739,104.262242 67.5652174,104.262242 C65.7473913,104.262242 64.2770435,103.658364 62.4141739,101.528727 C60.6993043,99.5725455 51.0117391,86.576303 48.2383478,82.8052727 C41.160087,73.1881818 29.805913,63.6899394 23.6896522,82.6864242 C20.3306957,93.1258182 20.8454783,104.25903 13.7446957,104.25903 C2.17495652,104.25903 -3.626,51.2269091 8.85747826,13.8924242 C10.8812174,7.89539394 14.3946087,1.34909091 19.0308696,2.75921212 C25.6586957,4.76678788 21.9715652,14.1365455 21.0417391,18.2866061 C20.2277391,21.942 14.7549565,41.3014545 26.0158261,46.2641818 C36.8970435,51.0630909 57.292087,28.5621818 60.145913,26.1145455 C62.365913,24.2065455 65.0138261,23.8275152 66.7801739,25.571697 C68.7041739,27.4732727 68.524,30.1007879 66.5517391,32.5195152 C64.7757391,34.6973333 55.0881739,45.6024848 55.0881739,56.9894545" id="Fill-3"></path>
        </g>
    </g>
</svg>