<?xml version="1.0" encoding="UTF-8"?>
<svg width="62px" height="62px" viewBox="0 0 62 62" version="1.1" xmlns="http://www.w3.org/2000/svg" xmlns:xlink="http://www.w3.org/1999/xlink">
    <!-- Generator: Sketch 48.2 (47327) - http://www.bohemiancoding.com/sketch -->
    <title>Group</title>
    <desc>Created with Sketch.</desc>
    <defs></defs>
    <g id="Page-1" stroke="none" stroke-width="1" fill="none" fill-rule="evenodd">
        <g id="Group">
            <rect id="Rectangle" fill="#FFFFFF" x="0" y="0" width="62" height="62"></rect>
            <path d="M19.6,30.88 C23.3600188,30.88 26.1133246,29.9733424 27.86,28.16 C29.6066754,26.3466576 30.48,23.8666824 30.48,20.72 C30.48,19.2799928 30.2600022,17.9666726 29.82,16.78 C29.3799978,15.5933274 28.7133378,14.5800042 27.82,13.74 C26.9266622,12.8999958 25.8000068,12.2533356 24.44,11.8 C23.0799932,11.3466644 21.466676,11.12 19.6,11.12 L12,11.12 L12,30.88 L19.6,30.88 Z M19.6,2 C23.5733532,2 27.0066522,2.466662 29.9,3.4 C32.7933478,4.333338 35.173324,5.633325 37.04,7.3 C38.906676,8.966675 40.2866622,10.9466552 41.18,13.24 C42.0733378,15.5333448 42.52,18.0266532 42.52,20.72 C42.52,23.5733476 42.053338,26.1866548 41.12,28.56 C40.186662,30.9333452 38.7733428,32.9733248 36.88,34.68 C34.9866572,36.3866752 32.6000144,37.7133286 29.72,38.66 C26.8399856,39.6066714 23.466686,40.08 19.6,40.08 L12,40.08 L12,60.04 L0,60.04 L0,2 L19.6,2 Z" id="P" fill="#FA1D8C"></path>
            <path d="M48,53.4 C48,52.5199956 48.166665,51.6866706 48.5,50.9 C48.833335,50.1133294 49.2933304,49.4333362 49.88,48.86 C50.4666696,48.2866638 51.1533294,47.833335 51.94,47.5 C52.7266706,47.166665 53.586662,47 54.52,47 C55.4266712,47 56.279996,47.166665 57.08,47.5 C57.880004,47.833335 58.5733304,48.2866638 59.16,48.86 C59.7466696,49.4333362 60.206665,50.1133294 60.54,50.9 C60.873335,51.6866706 61.04,52.5199956 61.04,53.4 C61.04,54.3066712 60.873335,55.1466628 60.54,55.92 C60.206665,56.6933372 59.7466696,57.3666638 59.16,57.94 C58.5733304,58.5133362 57.880004,58.9599984 57.08,59.28 C56.279996,59.6000016 55.4266712,59.76 54.52,59.76 C53.586662,59.76 52.7266706,59.6000016 51.94,59.28 C51.1533294,58.9599984 50.4666696,58.5133362 49.88,57.94 C49.2933304,57.3666638 48.833335,56.6933372 48.5,55.92 C48.166665,55.1466628 48,54.3066712 48,53.4 Z" id="." fill="#FA1D8C" opacity="0.35"></path>
        </g>
    </g>
</svg>