<?xml version="1.0" encoding="UTF-8"?>
<svg width="62px" height="70px" viewBox="0 0 62 70" version="1.1" xmlns="http://www.w3.org/2000/svg" xmlns:xlink="http://www.w3.org/1999/xlink">
    <!-- Generator: Sketch 48.2 (47327) - http://www.bohemiancoding.com/sketch -->
    <title>logo-sharethrough-horizontal-aronia</title>
    <desc>Created with Sketch.</desc>
    <defs></defs>
    <g id="Page-1" stroke="none" stroke-width="1" fill="none" fill-rule="evenodd">
        <g id="logo-sharethrough-horizontal-aronia" fill="#FA1D8C">
            <path d="M19.085,32.828 L22.928,35.05 L26.775,37.265 L26.781,37.268 L30.62,39.489 L34.459,37.268 L34.467,37.265 L38.31,35.05 L42.158,32.828 L46.003,35.05 L46.003,43.929 L45.995,43.931 L30.62,52.809 L15.247,43.931 L15.24,43.929 L19.085,41.705 L19.093,41.709 L30.62,48.366 L30.62,43.929 L22.936,39.491 L22.928,39.489 L19.085,37.265 L15.24,35.05 L15.24,26.167 L30.62,17.287 L46.003,26.169 L42.158,28.387 L38.31,30.609 L34.467,32.828 L30.62,35.05 L26.775,32.828 L22.928,30.609 L19.083,28.387 L15.24,26.167 L19.085,32.828 Z M60.659,17.068 L31.203,0.096 L30.039,0.096 L0.584,17.068 L0,18.078 L0,52.018 L0.584,53.028 L30.039,70 L31.203,70 L60.659,53.028 L61.243,52.018 L61.243,18.078 L60.659,17.068 Z" id="Fill-13"></path>
        </g>
    </g>
</svg>