<?xml version="1.0" encoding="UTF-8"?>
<svg width="128px" height="77px" viewBox="0 0 128 77" version="1.1" xmlns="http://www.w3.org/2000/svg" xmlns:xlink="http://www.w3.org/1999/xlink">
    <!-- Generator: Sketch 48.2 (47327) - http://www.bohemiancoding.com/sketch -->
    <title>Weedmaps/WM-Black</title>
    <desc>Created with Sketch.</desc>
    <defs></defs>
    <g id="r" stroke="none" stroke-width="1" fill="none" fill-rule="evenodd">
        <g id="Weedmaps/WM-Black" fill="#FA1D8C">
            <path d="M77.45,1.069 L77.45,6.416 L77.603,6.416 C79.03,4.381 80.745,2.801 82.76,1.681 C84.769,0.56 87.076,0 89.671,0 C92.167,0 94.445,0.484 96.509,1.449 C98.571,2.418 100.136,4.124 101.204,6.567 C102.375,4.836 103.968,3.311 105.979,1.984 C107.992,0.661 110.371,0 113.122,0 C115.208,0 117.144,0.257 118.926,0.762 C120.71,1.271 122.235,2.085 123.507,3.206 C124.782,4.326 125.774,5.788 126.488,7.6 C127.202,9.407 127.556,11.585 127.556,14.13 L127.556,40.554 L116.71,40.554 L116.71,18.179 C116.71,16.855 116.659,15.608 116.556,14.438 C116.457,13.262 116.177,12.247 115.72,11.379 C115.26,10.516 114.586,9.828 113.694,9.318 C112.802,8.809 111.593,8.552 110.066,8.552 C108.538,8.552 107.304,8.847 106.363,9.433 C105.419,10.018 104.682,10.78 104.147,11.725 C103.612,12.664 103.256,13.738 103.076,14.935 C102.898,16.127 102.809,17.336 102.809,18.562 L102.809,40.554 L91.963,40.554 L91.963,18.406 C91.963,17.234 91.938,16.076 91.887,14.935 C91.836,13.784 91.621,12.731 91.239,11.762 C90.855,10.793 90.219,10.018 89.329,9.433 C88.437,8.847 87.124,8.552 85.395,8.552 C84.885,8.552 84.211,8.67 83.37,8.897 C82.531,9.125 81.712,9.559 80.927,10.195 C80.135,10.831 79.463,11.749 78.903,12.946 C78.34,14.143 78.063,15.71 78.063,17.644 L78.063,40.554 L67.216,40.554 L67.216,1.069 L77.45,1.069 Z M37.658,40.554 L30.628,14.054 L30.477,14.054 L23.755,40.554 L12.528,40.554 L0,1.069 L11.459,1.069 L18.714,27.877 L18.869,27.877 L25.436,1.069 L35.979,1.069 L42.701,27.801 L42.853,27.801 L50.108,1.069 L61.259,1.069 L48.81,40.554 L37.658,40.554 Z" id="Fill-69"></path>
            <path d="M64.358,63.902 C87.803,63.902 99.671,55 99.671,55 L104.716,61.825 C104.716,61.825 87.208,76.663 64.358,76.663 C41.507,76.663 24,61.825 24,61.825 L29.045,55 C29.045,55 40.912,63.902 64.358,63.902" id="Fill-71" fill-opacity="0.3"></path>
        </g>
    </g>
</svg>